<svg id="Capa_1" data-name="Capa 1" xmlns="http://www.w3.org/2000/svg" viewBox="0 0 244 58"><defs><style>.cls-1{fill:#fff;}.cls-2{fill:#5d5d60;}.cls-3{fill:#d07500;}</style></defs><title>log in mobiera logo</title><rect class="cls-1" width="244" height="58"/><path class="cls-2" d="M41.71,14.5h3l7.59,17c.66,1.48,1.4,3.55,1.4,3.55h.08s.79-2.07,1.45-3.55l7.59-17h2.93L68,43.5H65.19L63.58,23.2c-.13-1.57-.09-4-.09-4h-.08s-.87,2.56-1.53,4l-6.8,14.9H52.39L45.58,23.2C44.92,21.76,44,19.08,44,19.08h-.09s0,2.55-.08,4.12L42.24,43.5H39.39Z"/><path class="cls-2" d="M85.69,14a14.66,14.66,0,0,1,14.77,14.81,14.78,14.78,0,1,1-29.55,0A14.66,14.66,0,0,1,85.69,14Zm0,27.36c6.52,0,11.8-5.45,11.8-12.55a11.81,11.81,0,1,0-23.61,0C73.88,35.91,79.12,41.36,85.69,41.36Z"/><path class="cls-2" d="M128.49,14.5h2.84v29h-2.84Z"/><path class="cls-2" d="M119.38,28.2v-.09a6.69,6.69,0,0,0,3.67-6.31c0-4.54-3.26-7.3-7.84-7.3h-9.9v29h10.23c4.87,0,8.71-3,8.71-8.12C124.25,31.87,122.35,29,119.38,28.2Zm1.9,7.09c0,3.47-2.19,5.66-5.7,5.66h-7.43V17.05h7a4.62,4.62,0,0,1,5,5,4.74,4.74,0,0,1-4.91,5.07h-.82C121.9,30.2,121.28,35.29,121.28,35.29Z"/><path class="cls-3" d="M173.12,30.57v.08a11.66,11.66,0,0,1,.75,1.15l6.33,11.67h-3.27L169,28.71h.9c3.51,0,5.75-2.26,5.75-5.89A5.37,5.37,0,0,0,173,17.75a8.43,8.43,0,0,0-4.14-.7H163V43.47h-2.86v-29h8.61c3,0,4.3.29,5.46.79,2.73,1.19,4.38,4,4.38,7.46C178.62,26.65,176.39,29.66,173.12,30.57Zm28.47,12.9-8.89-25-.26-1h-.08l-9.14,26h-3l10.67-29h3.06l10.68,29Zm-47.46-2.56v2.56H137V27.6h13.9v2.56H139.85V40.91ZM139.85,17.05H137V14.49h16.38v2.56Z"/></svg>